HIERARCHY
ROOT Pelvis
{
	OFFSET 0.000000 0.941512 0.000000
	CHANNELS 6 Xposition Yposition Zposition Zrotation Yrotation Xrotation 
	JOINT Pelvis_L_Hip
	{
		OFFSET 0.000000 0.000000 0.000000
		CHANNELS 3 Zrotation Yrotation Xrotation
		JOINT L_Hip
		{
			OFFSET 0.062321 -0.080322 -0.016990
			CHANNELS 3 Zrotation Yrotation Xrotation
			JOINT L_Knee
			{
				OFFSET 0.093051 -0.381305 -0.029784
				CHANNELS 3 Zrotation Yrotation Xrotation
				JOINT L_Ankle
				{
					OFFSET -0.010371 -0.431000 -0.033614
					CHANNELS 3 Zrotation Yrotation Xrotation
					End Site #name: L_Foot
					{
						OFFSET 0.069299 -0.038670 0.119418
					}
				}
			}
		}
	}
	JOINT Pelvis_R_Hip
	{
		OFFSET 0.000000 0.000000 0.000000
		CHANNELS 3 Zrotation Yrotation Xrotation
		JOINT R_Hip
		{
			OFFSET -0.055334 -0.094904 -0.002373
			CHANNELS 3 Zrotation Yrotation Xrotation
			JOINT R_Knee
			{
				OFFSET -0.064207 -0.384370 -0.019592
				CHANNELS 3 Zrotation Yrotation Xrotation
				JOINT R_Ankle
				{
					OFFSET 0.025418 -0.419734 -0.065953
					CHANNELS 3 Zrotation Yrotation Xrotation
					End Site #name: R_Foot
					{
						OFFSET -0.057233 -0.039888 0.132134
					}
				}
			}
		}
	}
	JOINT Pelvis_Spine1
	{
		OFFSET 0.000000 0.000000 0.000000
		CHANNELS 3 Zrotation Yrotation Xrotation
		JOINT Spine1
		{
			OFFSET -0.005562 0.124093 -0.043360
			CHANNELS 3 Zrotation Yrotation Xrotation
			JOINT Spine2
			{
				OFFSET 0.012244 0.139499 0.029894
				CHANNELS 3 Zrotation Yrotation Xrotation
				JOINT Spine3
				{
					OFFSET -0.002556 0.056561 0.009225
					CHANNELS 3 Zrotation Yrotation Xrotation
					JOINT Spine3_Neck
					{
						OFFSET 0.000000 0.000000 0.000000
						CHANNELS 3 Zrotation Yrotation Xrotation
						JOINT Neck
						{
							OFFSET -0.005205 0.217920 -0.024551
							CHANNELS 3 Zrotation Yrotation Xrotation
							End Site #name: Head
							{
								OFFSET 0.002365 0.091850 0.046637
							}
						}
					}
					JOINT Spine3_L_Collar
					{
						OFFSET 0.000000 0.000000 0.000000
						CHANNELS 3 Zrotation Yrotation Xrotation
						JOINT L_Collar
						{
							OFFSET 0.072225 0.116603 -0.009480
							CHANNELS 3 Zrotation Yrotation Xrotation
							JOINT L_Shoulder
							{
								OFFSET 0.115937 -0.058643 -0.021018
								CHANNELS 3 Zrotation Yrotation Xrotation
								JOINT L_Elbow
								{
									OFFSET 0.021994 -0.254722 -0.024492
									CHANNELS 3 Zrotation Yrotation Xrotation
									End Site #name: L_Wrist
									{
										OFFSET 0.048810 -0.240214 0.103329
									}
								}
							}
						}
					}
					JOINT Spine3_R_Collar
					{
						OFFSET 0.000000 0.000000 0.000000
						CHANNELS 3 Zrotation Yrotation Xrotation
						JOINT R_Collar
						{
							OFFSET -0.073372 0.120704 -0.024611
							CHANNELS 3 Zrotation Yrotation Xrotation
							JOINT R_Shoulder
							{
								OFFSET -0.108089 -0.054969 -0.020504
								CHANNELS 3 Zrotation Yrotation Xrotation
								JOINT R_Elbow
								{
									OFFSET -0.033684 -0.260739 0.009889
									CHANNELS 3 Zrotation Yrotation Xrotation
									End Site #name: R_Wrist
									{
										OFFSET -0.067980 -0.232763 0.118463
									}
								}
							}
						}
					}
				}
			}
		}
	}
}
MOTION
Frames: 7
Frame Time: 0.041667
0.010885 0.525485 -0.137603 -4.627425 1.346078 19.548678 0.000000 0.000000 0.000000 44.880700 14.442019 -89.897857 -62.167973 44.478253 60.660785 15.275251 26.594997 -14.390805 0.000000 0.000000 0.000000 -31.331343 -12.078074 -93.105607 36.377712 -38.979572 84.091468 -11.184786 -22.494368 -15.495022 0.000000 0.000000 0.000000 -1.307067 -3.354186 39.036785 -5.829050 0.086914 -8.996770 8.949459 7.073429 -30.988609 0.000000 0.000000 0.000000 -3.867181 1.683010 -4.085923 0.000000 0.000000 0.000000 56.457725 -9.767772 5.008258 52.833305 2.173186 -18.973788 97.602037 13.388336 34.612498 0.000000 0.000000 0.000000 -55.217075 7.486751 6.181538 -43.635965 -6.328703 -17.713707 -91.006061 -18.467148 35.039918 
0.012083 0.553363 -0.139356 -4.651639 1.222776 20.780064 0.000000 0.000000 0.000000 43.857109 13.230946 -88.207489 -59.383105 41.709983 59.703334 14.598397 25.379497 -13.581396 0.000000 0.000000 0.000000 -29.601136 -10.100794 -92.311635 33.932097 -35.420476 82.752620 -10.760549 -21.453020 -14.779269 0.000000 0.000000 0.000000 -1.146186 -3.217877 37.090280 -5.864756 0.122221 -8.663572 8.802393 6.660492 -31.253165 0.000000 0.000000 0.000000 -3.697159 1.613181 -3.934078 0.000000 0.000000 0.000000 57.045572 -10.097685 4.558953 52.464952 2.314591 -19.416820 97.263138 14.870669 32.578350 0.000000 0.000000 0.000000 -55.136842 6.995088 7.040745 -43.278551 -6.377618 -18.203826 -91.638812 -19.500681 33.637222 
0.010728 0.599489 -0.138604 -5.216861 1.436715 24.195239 0.000000 0.000000 0.000000 41.958917 11.456173 -86.774432 -52.414167 36.439703 59.489926 12.999226 21.907527 -12.300434 0.000000 0.000000 0.000000 -27.866749 -8.112858 -90.482210 33.249818 -31.348824 75.875434 -10.276997 -20.934871 -13.402183 0.000000 0.000000 0.000000 0.020307 -3.239566 30.798162 -5.725233 0.225484 -7.452833 8.487219 6.223729 -31.224576 0.000000 0.000000 0.000000 -3.317327 1.460200 -3.549015 0.000000 0.000000 0.000000 56.835408 -10.130030 4.263368 51.468318 2.433470 -19.910376 96.271366 16.412320 30.311568 0.000000 0.000000 0.000000 -54.900925 6.735025 7.467581 -43.078773 -6.434910 -18.613471 -89.787030 -20.008697 32.454140 
0.006968 0.663602 -0.131711 -5.300276 1.379114 26.248724 0.000000 0.000000 0.000000 37.919577 7.417810 -82.605251 -42.913444 29.066623 58.680374 10.927549 17.154516 -10.963246 0.000000 0.000000 0.000000 -24.465469 -4.237962 -85.802890 29.431255 -24.493815 69.030718 -9.327788 -19.159626 -11.630218 0.000000 0.000000 0.000000 0.900896 -2.969942 24.521505 -5.858515 0.414140 -5.621960 7.962956 5.722104 -31.378790 0.000000 0.000000 0.000000 -3.154540 1.392425 -2.662347 0.000000 0.000000 0.000000 56.187520 -10.162629 3.839474 49.479850 2.288898 -19.845402 91.851879 20.542249 23.356328 0.000000 0.000000 0.000000 -53.848490 6.452298 7.606640 -41.761962 -6.191529 -18.617950 -86.593853 -22.479677 27.162756 
0.002930 0.746237 -0.118376 -5.347781 1.354756 25.913908 0.000000 0.000000 0.000000 32.137717 2.034539 -74.108417 -32.550123 19.877003 54.135900 7.639488 11.060643 -7.931569 0.000000 0.000000 0.000000 -19.336453 0.500254 -76.448568 23.691448 -16.017865 59.475864 -7.571206 -16.026857 -8.404193 0.000000 0.000000 0.000000 1.915357 -2.616065 17.714109 -6.003294 0.779404 -2.050539 7.579343 5.141370 -30.598484 0.000000 0.000000 0.000000 -2.822067 1.259502 -2.677966 0.000000 0.000000 0.000000 54.585185 -10.019452 3.317451 44.025050 1.897614 -19.665081 82.411486 28.510559 6.535691 0.000000 0.000000 0.000000 -51.911768 6.030738 7.478230 -37.884625 -5.552297 -19.178081 -80.374321 -27.594407 14.388238 
-0.000621 0.839935 -0.094967 -4.806925 1.275281 24.075499 0.000000 0.000000 0.000000 24.775015 -2.847659 -60.937143 -22.490522 10.564465 43.004611 2.838231 4.634775 -2.447803 0.000000 0.000000 0.000000 -13.773514 3.810842 -62.530924 16.916349 -8.035006 45.345598 -4.717491 -11.680370 -3.194315 0.000000 0.000000 0.000000 2.841825 -1.855908 8.884238 -6.518921 1.330621 2.525438 7.068365 4.573271 -28.919665 0.000000 0.000000 0.000000 -2.723665 1.225146 -1.769484 0.000000 0.000000 0.000000 51.038073 -9.889916 2.300213 34.668738 1.648631 -21.655579 59.490451 32.041444 -22.938803 0.000000 0.000000 0.000000 -48.188394 5.048881 7.260689 -29.474259 -3.812195 -18.888810 -64.274566 -32.302483 -12.495732 
-0.003447 0.922621 -0.059404 -4.591832 1.161449 21.305096 0.000000 0.000000 0.000000 16.548708 -5.494884 -45.260659 -11.489172 3.397425 28.298802 -2.477594 -0.591121 3.956433 0.000000 0.000000 0.000000 -7.674982 5.241199 -46.103436 9.420389 -2.416522 28.087850 -1.072130 -6.682907 2.671541 0.000000 0.000000 0.000000 3.815418 -0.755803 -1.797086 -6.840257 1.984238 7.986440 6.437403 4.079943 -27.089440 0.000000 0.000000 0.000000 -2.143141 0.939646 2.489166 0.000000 0.000000 0.000000 44.139273 -8.724390 1.865205 20.367996 0.427142 -24.435037 31.640736 18.144634 -46.712507 0.000000 0.000000 0.000000 -41.999358 3.038471 7.350305 -15.725516 -0.875701 -18.050277 -39.355928 -22.971890 -40.927070 
